<?xml version="1.0" standalone="no"?>
<!DOCTYPE svg PUBLIC "-//W3C//DTD SVG 20010904//EN"
 "http://www.w3.org/TR/2001/REC-SVG-20010904/DTD/svg10.dtd">
<svg version="1.0" xmlns="http://www.w3.org/2000/svg"
 width="626.000000pt" height="626.000000pt" viewBox="0 0 626.000000 626.000000"
 preserveAspectRatio="xMidYMid meet">
<metadata>
Created by potrace 1.14, written by Peter Selinger 2001-2017
</metadata>
<g transform="translate(0.000000,626.000000) scale(0.100000,-0.100000)"
fill="#000000" stroke="none">
<path d="M4306 5841 c-28 -6 -50 -31 -27 -31 6 0 11 -4 11 -10 0 -20 -38 -10
-45 13 l-7 22 -7 -25 c-8 -31 -47 -40 -54 -13 -4 16 -6 15 -12 -4 -6 -17 -15
-23 -39 -23 -17 0 -50 -9 -72 -19 -36 -17 -41 -22 -37 -45 5 -23 2 -26 -21
-26 -14 0 -26 5 -26 12 0 7 -7 5 -17 -5 -10 -9 -34 -30 -53 -46 -19 -17 -29
-31 -22 -31 21 0 13 -30 -13 -42 -20 -9 -22 -14 -14 -29 5 -11 17 -19 25 -19
8 0 12 -5 8 -11 -3 -6 -1 -21 6 -33 9 -17 18 -21 41 -18 17 3 29 0 29 -7 0 -6
-9 -11 -21 -11 -25 0 -24 -2 21 -62 19 -26 43 -47 53 -48 10 0 17 -8 17 -18 0
-29 35 -55 61 -47 19 6 21 4 17 -20 -4 -19 1 -32 15 -46 12 -10 23 -15 26 -11
3 5 14 11 24 15 13 5 17 1 17 -18 0 -14 -6 -25 -12 -25 -7 0 0 -12 15 -27 18
-18 30 -24 35 -17 4 6 15 13 25 17 22 8 23 -18 1 -31 -14 -8 -11 -13 18 -36
40 -30 48 -32 48 -11 0 8 5 15 10 15 6 0 10 -7 10 -15 0 -8 -4 -15 -10 -15
-23 0 -6 -17 58 -61 58 -41 69 -45 81 -32 10 11 16 12 25 3 8 -9 8 -14 -1 -17
-20 -7 -15 -17 16 -36 19 -11 32 -14 36 -7 12 19 37 11 30 -9 -4 -15 1 -23 22
-34 15 -7 36 -12 46 -10 11 3 17 -1 17 -12 0 -10 33 -31 95 -60 93 -44 133
-55 120 -35 -3 6 1 10 9 10 9 0 16 -8 16 -19 0 -14 11 -22 44 -30 24 -6 51
-13 60 -17 10 -4 16 -1 16 9 0 8 7 18 16 21 13 5 15 1 12 -19 -4 -18 -1 -25
11 -25 9 0 26 -3 38 -6 17 -5 26 2 47 38 15 26 26 60 26 81 0 25 5 37 14 37
19 0 36 52 36 111 0 28 5 49 13 53 8 3 7 8 -5 16 -24 15 -23 37 2 45 26 8 25
23 -2 27 -12 2 -23 9 -26 17 -3 9 1 11 16 7 27 -9 30 6 21 89 -8 77 -60 250
-67 223 -3 -15 -22 -27 -22 -14 0 2 -3 11 -6 19 -3 10 2 17 13 20 16 4 15 6
-5 12 -17 6 -22 13 -19 26 7 25 -48 99 -72 99 -24 0 -38 19 -22 29 7 5 0 17
-21 37 -22 20 -29 24 -25 11 6 -15 2 -18 -16 -15 -23 3 -39 48 -16 48 6 0 -1
10 -16 22 -20 15 -30 18 -33 10 -6 -18 -49 -15 -56 4 -9 22 -8 24 12 24 12 0
9 6 -13 20 -17 11 -38 17 -51 14 -14 -4 -23 0 -28 11 -7 20 -65 45 -104 45
-15 0 -33 5 -40 12 -9 9 -12 9 -12 0 0 -7 -9 -12 -21 -12 -15 0 -19 5 -15 15
5 13 -13 15 -122 14 -70 -1 -140 -4 -156 -8z m119 -30 c-3 -6 -11 -8 -17 -5
-6 4 -5 9 3 15 16 10 23 4 14 -10z m65 9 c0 -5 -7 -10 -15 -10 -8 0 -15 5 -15
10 0 6 7 10 15 10 8 0 15 -4 15 -10z m57 4 c-3 -3 -12 -4 -19 -1 -8 3 -5 6 6
6 11 1 17 -2 13 -5z m-177 -14 c0 -5 -12 -10 -27 -10 -22 0 -25 2 -13 10 20
13 40 13 40 0z m318 -43 c2 -10 -3 -17 -12 -17 -18 0 -29 16 -21 31 9 14 29 6
33 -14z m62 3 c0 -11 -7 -20 -15 -20 -8 0 -15 9 -15 20 0 11 7 20 15 20 8 0
15 -9 15 -20z m-190 -5 c0 -8 -7 -15 -15 -15 -8 0 -15 7 -15 15 0 8 7 15 15
15 8 0 15 -7 15 -15z m70 -1 c0 -9 -7 -14 -17 -12 -25 5 -28 28 -4 28 12 0 21
-6 21 -16z m-190 -9 c0 -8 -7 -15 -15 -15 -8 0 -15 7 -15 15 0 8 7 15 15 15 8
0 15 -7 15 -15z m60 0 c0 -8 -7 -15 -15 -15 -8 0 -15 7 -15 15 0 8 7 15 15 15
8 0 15 -7 15 -15z m-120 -10 c0 -10 -10 -15 -30 -15 -20 0 -30 5 -30 15 0 10
10 15 30 15 20 0 30 -5 30 -15z m-82 -7 c-7 -19 -38 -22 -38 -4 0 10 9 16 21
16 12 0 19 -5 17 -12z m-68 -13 c-7 -8 -19 -15 -26 -15 -8 0 -14 7 -14 15 0
10 10 15 26 15 22 0 25 -2 14 -15z m-60 -4 c0 -9 -24 -21 -41 -21 -5 0 -9 7
-9 15 0 9 9 15 25 15 14 0 25 -4 25 -9z m654 -7 c9 -22 8 -24 -9 -24 -8 0 -15
9 -15 20 0 24 15 27 24 4z m-734 -9 c0 -9 -9 -15 -25 -15 -24 0 -32 10 -18 23
12 13 43 7 43 -8z m550 -5 c0 -11 -7 -20 -15 -20 -8 0 -15 9 -15 20 0 11 7 20
15 20 8 0 15 -9 15 -20z m60 5 c0 -8 -7 -15 -15 -15 -8 0 -15 7 -15 15 0 8 7
15 15 15 8 0 15 -7 15 -15z m70 0 c0 -8 -6 -15 -14 -15 -8 0 -16 7 -20 15 -4
10 1 15 14 15 11 0 20 -7 20 -15z m-190 -10 c0 -8 -6 -15 -14 -15 -8 0 -16 7
-20 15 -4 10 1 15 14 15 11 0 20 -7 20 -15z m-130 -10 c0 -8 -6 -15 -14 -15
-17 0 -28 14 -19 24 12 12 33 6 33 -9z m60 0 c0 -8 -7 -15 -15 -15 -8 0 -15 7
-15 15 0 8 7 15 15 15 8 0 15 -7 15 -15z m-120 -10 c0 -10 -10 -15 -30 -15
-20 0 -30 5 -30 15 0 10 10 15 30 15 20 0 30 -5 30 -15z m-150 -15 c0 -13 -7
-20 -20 -20 -25 0 -27 27 -2 33 9 3 18 5 20 6 1 0 2 -8 2 -19z m70 5 c0 -8 -9
-15 -20 -15 -11 0 -20 7 -20 15 0 8 9 15 20 15 11 0 20 -7 20 -15z m-140 -15
c0 -13 -7 -20 -20 -20 -25 0 -27 27 -2 33 9 3 18 5 20 6 1 0 2 -8 2 -19z m614
-6 c4 -9 4 -19 2 -22 -10 -9 -36 8 -36 23 0 20 26 19 34 -1z m56 -4 c0 -11 -4
-20 -10 -20 -5 0 -10 2 -10 4 0 2 -3 11 -6 20 -4 11 -1 16 10 16 9 0 16 -8 16
-20z m83 0 c4 -16 0 -20 -19 -20 -13 0 -24 2 -24 4 0 2 -3 11 -6 20 -5 12 0
16 19 16 16 0 26 -7 30 -20z m-823 -4 c0 -14 -34 -28 -44 -18 -15 14 -4 32 19
32 15 0 25 -6 25 -14z m490 -12 c0 -8 -6 -14 -14 -14 -18 0 -29 27 -13 33 16
6 27 -1 27 -19z m63 12 c7 -16 -1 -26 -20 -26 -7 0 -13 9 -13 20 0 23 25 27
33 6z m67 -2 c0 -9 -7 -14 -17 -12 -25 5 -28 28 -4 28 12 0 21 -6 21 -16z
m-700 -14 c0 -23 -25 -27 -33 -6 -5 13 5 23 26 25 4 1 7 -8 7 -19z m500 0 c0
-11 -7 -20 -15 -20 -8 0 -15 9 -15 20 0 11 7 20 15 20 8 0 15 -9 15 -20z
m-127 -9 c3 -12 -1 -22 -10 -25 -27 -11 -43 -6 -43 13 0 17 10 24 41 30 4 0 9
-8 12 -18z m60 5 c7 -16 -1 -26 -20 -26 -7 0 -13 9 -13 20 0 23 25 27 33 6z
m-505 -13 c-5 -25 -28 -28 -28 -4 0 12 6 21 16 21 9 0 14 -7 12 -17z m362 -8
c0 -30 -25 -34 -33 -5 -4 17 4 27 26 29 4 1 7 -10 7 -24z m-63 -19 c-9 -23
-37 -20 -37 3 0 21 20 33 34 20 5 -4 6 -15 3 -23z m-67 -6 c0 -13 -7 -20 -19
-20 -10 0 -21 9 -24 20 -4 16 0 20 19 20 17 0 24 -6 24 -20z m758 2 c3 -9 -3
-13 -19 -10 -12 1 -24 9 -27 16 -3 9 3 13 19 10 12 -1 24 -9 27 -16z m65 3 c1
-5 -6 -11 -15 -13 -11 -2 -18 3 -18 13 0 17 30 18 33 0z m-903 -14 c0 -10 -9
-21 -20 -24 -15 -4 -20 0 -20 13 0 17 12 27 33 29 4 1 7 -7 7 -18z m568 1 c2
-7 -6 -12 -17 -12 -21 0 -27 11 -14 24 9 9 26 2 31 -12z m62 3 c0 -8 -7 -15
-15 -15 -8 0 -15 7 -15 15 0 8 7 15 15 15 8 0 15 -7 15 -15z m70 5 c0 -5 -7
-10 -15 -10 -8 0 -15 5 -15 10 0 6 7 10 15 10 8 0 15 -4 15 -10z m60 0 c0 -5
-7 -10 -15 -10 -8 0 -15 5 -15 10 0 6 7 10 15 10 8 0 15 -4 15 -10z m-260 -15
c0 -8 -6 -15 -14 -15 -8 0 -16 7 -20 15 -4 10 1 15 14 15 11 0 20 -7 20 -15z
m-572 -12 c-5 -26 -38 -29 -38 -4 0 15 6 21 21 21 14 0 19 -5 17 -17z m421
-14 c-9 -5 -15 -4 -18 2 -2 6 3 15 10 20 9 5 15 4 18 -2 2 -6 -3 -15 -10 -20z
m81 16 c0 -8 -7 -15 -15 -15 -8 0 -15 7 -15 15 0 8 7 15 15 15 8 0 15 -7 15
-15z m-130 -9 c0 -7 -11 -16 -25 -18 -24 -5 -34 10 -18 25 12 12 43 7 43 -7z
m-440 -11 c0 -8 -9 -15 -20 -15 -11 0 -20 7 -20 15 0 8 9 15 20 15 11 0 20 -7
20 -15z m360 0 c0 -8 -9 -15 -20 -15 -20 0 -26 11 -13 23 12 13 33 7 33 -8z
m-74 -22 c-3 -3 -13 -2 -23 2 -17 7 -17 8 2 15 19 7 34 -5 21 -17z m567 12 c7
-16 -8 -29 -23 -20 -15 9 -12 35 4 35 8 0 16 -7 19 -15z m57 -1 c0 -17 -22
-14 -28 4 -2 7 3 12 12 12 9 0 16 -7 16 -16z m80 1 c0 -8 -9 -15 -20 -15 -11
0 -20 7 -20 15 0 8 9 15 20 15 11 0 20 -7 20 -15z m70 -1 c0 -9 -7 -14 -17
-12 -25 5 -28 28 -4 28 12 0 21 -6 21 -16z m68 -1 c2 -8 -5 -13 -17 -13 -12 0
-21 6 -21 16 0 18 31 15 38 -3z m-410 -16 c2 -12 -3 -17 -17 -17 -15 0 -21 6
-21 21 0 25 33 22 38 -4z m72 8 c0 -8 -9 -15 -20 -15 -11 0 -20 7 -20 15 0 8
9 15 20 15 11 0 20 -7 20 -15z m-570 -4 c0 -5 -7 -12 -16 -15 -22 -9 -24 -8
-24 9 0 8 9 15 20 15 11 0 20 -4 20 -9z m430 -5 c0 -15 -24 -28 -34 -19 -13
14 -5 33 14 33 11 0 20 -6 20 -14z m-502 -8 c-5 -16 -48 -24 -48 -9 0 8 17 16
43 20 5 0 7 -5 5 -11z m432 -3 c0 -8 -7 -15 -15 -15 -8 0 -15 7 -15 15 0 8 7
15 15 15 8 0 15 -7 15 -15z m-70 -10 c0 -8 -7 -15 -15 -15 -8 0 -15 7 -15 15
0 8 7 15 15 15 8 0 15 -7 15 -15z m-440 -4 c0 -5 -7 -11 -15 -15 -9 -3 -15 0
-15 9 0 8 7 15 15 15 8 0 15 -4 15 -9z m370 -6 c0 -16 -35 -21 -44 -6 -8 12 4
21 26 21 10 0 18 -7 18 -15z m-80 -10 c0 -8 -7 -15 -15 -15 -8 0 -15 7 -15 15
0 8 7 15 15 15 8 0 15 -7 15 -15z m640 -5 c0 -11 -7 -20 -15 -20 -8 0 -15 2
-15 4 0 2 -3 11 -6 20 -4 12 0 16 15 16 14 0 21 -6 21 -20z m70 5 c0 -8 -7
-15 -15 -15 -8 0 -15 7 -15 15 0 8 7 15 15 15 8 0 15 -7 15 -15z m70 0 c0 -8
-9 -15 -20 -15 -11 0 -20 7 -20 15 0 8 9 15 20 15 11 0 20 -7 20 -15z m-842
-13 c2 -7 -6 -12 -17 -12 -21 0 -27 11 -14 24 9 9 26 2 31 -12z m502 -8 c0
-17 -26 -19 -36 -3 -7 12 15 31 28 23 4 -3 8 -12 8 -20z m70 12 c0 -8 -7 -16
-15 -20 -8 -3 -15 -4 -15 -2 0 3 -3 11 -6 20 -4 12 0 16 15 16 12 0 21 -6 21
-14z m58 -4 c2 -7 -3 -12 -12 -12 -9 0 -16 7 -16 16 0 17 22 14 28 -4z m-198
-12 c0 -13 -7 -20 -20 -20 -13 0 -20 7 -20 20 0 13 7 20 20 20 13 0 20 -7 20
-20z m-510 -5 c0 -8 -7 -15 -15 -15 -8 0 -15 7 -15 15 0 8 7 15 15 15 8 0 15
-7 15 -15z m438 -2 c-2 -10 -10 -18 -18 -18 -8 0 -16 8 -18 18 -2 12 3 17 18
17 15 0 20 -5 18 -17z m-508 -7 c0 -7 -9 -16 -20 -19 -22 -6 -29 18 -7 26 21
9 27 7 27 -7z m433 -1 c8 -18 -11 -31 -25 -17 -11 11 -3 32 12 32 4 0 10 -7
13 -15z m-70 -9 c7 -16 -1 -26 -20 -26 -7 0 -13 9 -13 20 0 23 25 27 33 6z
m-443 -11 c0 -8 -7 -15 -15 -15 -8 0 -15 7 -15 15 0 8 7 15 15 15 8 0 15 -7
15 -15z m378 -2 c-4 -23 -48 -31 -48 -10 0 9 6 18 13 20 25 11 38 7 35 -10z
m632 2 c0 -8 -7 -15 -15 -15 -8 0 -15 7 -15 15 0 8 7 15 15 15 8 0 15 -7 15
-15z m70 0 c0 -8 -6 -15 -14 -15 -8 0 -16 7 -20 15 -4 10 1 15 14 15 11 0 20
-7 20 -15z m-210 -15 c0 -11 -7 -20 -15 -20 -8 0 -15 9 -15 20 0 11 7 20 15
20 8 0 15 -9 15 -20z m78 3 c2 -8 -5 -13 -17 -13 -12 0 -21 6 -21 16 0 18 31
15 38 -3z m-648 -8 c0 -8 -7 -15 -15 -15 -8 0 -15 7 -15 15 0 8 7 15 15 15 8
0 15 -7 15 -15z m440 -5 c0 -23 -25 -27 -33 -6 -7 16 1 26 20 26 7 0 13 -9 13
-20z m70 6 c0 -22 -27 -27 -33 -5 -4 14 0 19 14 19 10 0 19 -6 19 -14z m-580
-11 c0 -8 -7 -15 -15 -15 -8 0 -15 7 -15 15 0 8 7 15 15 15 8 0 15 -7 15 -15z
m440 -5 c0 -13 -7 -20 -20 -20 -13 0 -20 7 -20 20 0 13 7 20 20 20 13 0 20 -7
20 -20z m-510 -5 c0 -16 -27 -32 -37 -22 -3 4 -3 13 0 22 8 20 37 20 37 0z
m430 11 c0 -2 3 -11 6 -20 4 -12 0 -16 -15 -16 -14 0 -21 6 -21 20 0 11 7 20
15 20 8 0 15 -2 15 -4z m-70 -26 c0 -11 -7 -20 -15 -20 -8 0 -15 9 -15 20 0
11 7 20 15 20 8 0 15 -9 15 -20z m-440 -4 c0 -14 -29 -31 -38 -22 -2 3 -2 12
1 21 8 19 37 20 37 1z m368 -8 c-4 -27 -28 -36 -28 -10 0 20 8 32 22 32 5 0 8
-10 6 -22z m572 2 c0 -11 -7 -20 -15 -20 -27 0 -18 30 13 39 1 1 2 -8 2 -19z
m70 5 c0 -8 -7 -15 -15 -15 -8 0 -15 7 -15 15 0 8 7 15 15 15 8 0 15 -7 15
-15z m60 0 c0 -8 -4 -15 -10 -15 -5 0 -10 7 -10 15 0 8 5 15 10 15 6 0 10 -7
10 -15z m-770 -20 c0 -18 -5 -25 -20 -25 -25 0 -27 37 -2 43 9 3 18 5 20 6 1
0 2 -10 2 -24z m580 10 c0 -8 -9 -15 -20 -15 -11 0 -20 7 -20 15 0 8 9 15 20
15 11 0 20 -7 20 -15z m-80 -10 c0 -8 -7 -15 -15 -15 -8 0 -15 7 -15 15 0 8 7
15 15 15 8 0 15 -7 15 -15z m-580 -15 c0 -11 -7 -20 -15 -20 -15 0 -21 21 -8
33 12 13 23 7 23 -13z m520 5 c0 -8 -7 -15 -15 -15 -8 0 -15 7 -15 15 0 8 7
15 15 15 8 0 15 -7 15 -15z m-70 -10 c0 -8 -6 -15 -14 -15 -8 0 -16 7 -20 15
-4 10 1 15 14 15 11 0 20 -7 20 -15z m-517 -9 c3 -8 -1 -17 -9 -20 -23 -9 -24
-8 -24 14 0 23 25 27 33 6z m447 -1 c0 -8 -9 -15 -20 -15 -11 0 -20 7 -20 15
0 8 9 15 20 15 11 0 20 -7 20 -15z m480 -6 c0 -11 -4 -17 -10 -14 -5 3 -10 13
-10 21 0 8 5 14 10 14 6 0 10 -9 10 -21z m-1000 -9 c0 -13 -7 -20 -20 -20 -22
0 -28 25 -7 33 22 10 27 7 27 -13z m440 5 c0 -8 -7 -15 -15 -15 -8 0 -15 7
-15 15 0 8 7 15 15 15 8 0 15 -7 15 -15z m500 0 c0 -8 -7 -15 -15 -15 -8 0
-15 7 -15 15 0 8 7 15 15 15 8 0 15 -7 15 -15z m-572 -12 c-5 -25 -28 -28 -28
-4 0 12 6 21 16 21 9 0 14 -7 12 -17z m502 2 c0 -8 -7 -15 -15 -15 -8 0 -15 7
-15 15 0 8 7 15 15 15 8 0 15 -7 15 -15z m-574 -24 c-10 -16 -36 -13 -36 3 0
17 21 27 34 16 4 -5 5 -13 2 -19z m434 9 c0 -11 -7 -20 -15 -20 -27 0 -18 30
13 39 1 1 2 -8 2 -19z m80 5 c0 -8 -9 -15 -20 -15 -11 0 -20 7 -20 15 0 8 9
15 20 15 11 0 20 -7 20 -15z m-584 -16 c3 -6 0 -15 -7 -20 -22 -14 -29 -11
-29 11 0 21 24 27 36 9z m444 -4 c0 -8 -7 -15 -15 -15 -8 0 -15 7 -15 15 0 8
7 15 15 15 8 0 15 -7 15 -15z m-520 -15 c0 -11 -7 -20 -15 -20 -8 0 -15 9 -15
20 0 11 7 20 15 20 8 0 15 -9 15 -20z m450 4 c0 -9 -7 -14 -17 -12 -25 5 -28
28 -4 28 12 0 21 -6 21 -16z m410 -5 c0 -11 -4 -17 -10 -14 -5 3 -10 13 -10
21 0 8 5 14 10 14 6 0 10 -9 10 -21z m-480 -4 c0 -8 -9 -15 -20 -15 -11 0 -20
7 -20 15 0 8 9 15 20 15 11 0 20 -7 20 -15z m423 1 c3 -8 0 -17 -8 -19 -15 -7
-25 1 -25 20 0 17 26 17 33 -1z m-875 -13 c-5 -26 -38 -29 -38 -4 0 15 6 21
21 21 14 0 19 -5 17 -17z m372 3 c0 -8 -7 -16 -15 -20 -15 -5 -21 14 -8 27 11
12 23 8 23 -7z m433 0 c3 -8 0 -17 -8 -19 -15 -7 -25 1 -25 20 0 17 26 17 33
-1z m-63 -11 c0 -16 -27 -32 -37 -22 -3 4 -3 13 0 22 8 20 37 20 37 0z m-450
-10 c0 -8 -4 -15 -9 -15 -13 0 -22 16 -14 24 11 11 23 6 23 -9z m-70 -10 c0
-8 -7 -15 -15 -15 -16 0 -20 12 -8 23 11 12 23 8 23 -8z m440 0 c0 -8 -7 -15
-15 -15 -8 0 -15 7 -15 15 0 8 7 15 15 15 8 0 15 -7 15 -15z m-60 -10 c0 -8
-7 -15 -15 -15 -8 0 -15 7 -15 15 0 8 7 15 15 15 8 0 15 -7 15 -15z m340 -17
c0 -25 -3 -29 -10 -18 -13 20 -13 50 0 50 6 0 10 -15 10 -32z m-790 7 c0 -8
-9 -15 -20 -15 -20 0 -26 11 -13 23 12 13 33 7 33 -8z m380 0 c0 -8 -9 -15
-20 -15 -11 0 -20 7 -20 15 0 8 9 15 20 15 11 0 20 -7 20 -15z m354 -1 c10
-27 7 -44 -9 -44 -8 0 -15 3 -15 8 0 4 -3 17 -6 30 -7 26 20 32 30 6z m-426
-11 c5 -18 -28 -29 -38 -12 -5 7 -6 17 -3 22 7 12 35 5 41 -10z m356 -5 c8
-33 8 -38 -8 -38 -14 0 -26 21 -26 46 0 23 27 16 34 -8z m-744 -4 c0 -9 -5
-14 -12 -12 -18 6 -21 28 -4 28 9 0 16 -7 16 -16z m680 -14 c0 -23 -4 -30 -20
-30 -14 0 -20 7 -20 23 0 27 7 37 27 37 8 0 13 -12 13 -30z m-372 3 c2 -8 -5
-13 -17 -13 -12 0 -21 6 -21 16 0 18 31 15 38 -3z m-80 -10 c-5 -25 -28 -28
-28 -4 0 12 6 21 16 21 9 0 14 -7 12 -17z m372 -8 c0 -16 -6 -25 -15 -25 -9 0
-15 9 -15 25 0 16 6 25 15 25 9 0 15 -9 15 -25z m-60 -10 c0 -16 -6 -25 -15
-25 -9 0 -15 9 -15 25 0 16 6 25 15 25 9 0 15 -9 15 -25z m-390 0 c0 -8 -7
-15 -15 -15 -8 0 -15 7 -15 15 0 8 7 15 15 15 8 0 15 -7 15 -15z m319 -27 c1
-5 -8 -8 -19 -8 -13 0 -20 7 -20 19 0 38 36 27 39 -11z m-389 7 c0 -8 -7 -15
-15 -15 -8 0 -15 7 -15 15 0 8 7 15 15 15 8 0 15 -7 15 -15z m310 -4 c0 -11
-5 -23 -11 -27 -15 -9 -33 12 -26 30 9 23 37 20 37 -3z m438 -4 c2 -10 -3 -17
-12 -17 -10 0 -16 9 -16 21 0 24 23 21 28 -4z m-70 -10 c2 -10 -3 -17 -12 -17
-18 0 -29 16 -21 31 9 14 29 6 33 -14z m-448 -7 c0 -11 -7 -20 -15 -20 -8 0
-15 9 -15 20 0 11 7 20 15 20 8 0 15 -9 15 -20z m380 0 c0 -13 -7 -20 -20 -20
-22 0 -28 25 -7 33 22 10 27 7 27 -13z m-460 -10 c0 -11 -7 -20 -15 -20 -27 0
-18 30 13 39 1 1 2 -8 2 -19z m380 -5 c0 -8 -7 -15 -15 -15 -8 0 -15 7 -15 15
0 8 7 15 15 15 8 0 15 -7 15 -15z m-454 -24 c-10 -16 -36 -13 -36 3 0 17 21
27 34 16 4 -5 5 -13 2 -19z m384 15 c0 -8 -4 -17 -9 -21 -12 -7 -24 12 -16 25
9 15 25 12 25 -4z m290 -21 c0 -28 -15 -33 -24 -8 -4 9 -1 20 6 25 18 11 18
11 18 -17z m-761 -16 c-9 -5 -15 -4 -18 2 -2 6 3 15 10 20 9 5 15 4 18 -2 2
-6 -3 -15 -10 -20z m401 16 c0 -8 -7 -15 -15 -15 -8 0 -15 7 -15 15 0 8 7 15
15 15 8 0 15 -7 15 -15z m-70 -9 c0 -7 -9 -16 -20 -19 -15 -4 -20 0 -20 14 0
12 7 19 20 19 11 0 20 -6 20 -14z m360 10 c0 -2 3 -11 6 -20 4 -12 0 -16 -15
-16 -14 0 -21 6 -21 20 0 11 7 20 15 20 8 0 15 -2 15 -4z m-60 -26 c0 -23 -35
-28 -43 -6 -7 18 1 26 25 26 11 0 18 -7 18 -20z m-382 -2 c-7 -19 -38 -22 -38
-4 0 10 9 16 21 16 12 0 19 -5 17 -12z m-88 -13 c0 -8 -7 -15 -15 -15 -26 0
-18 20 13 29 1 1 2 -6 2 -14z m390 0 c0 -8 -7 -15 -15 -15 -8 0 -15 7 -15 15
0 8 7 15 15 15 8 0 15 -7 15 -15z m-72 -12 c-5 -25 -28 -28 -28 -4 0 12 6 21
16 21 9 0 14 -7 12 -17z m-68 -19 c0 -8 -9 -14 -20 -14 -22 0 -28 26 -7 33 16
6 27 -1 27 -19z m360 -5 c0 -24 -23 -21 -28 4 -2 10 3 17 12 17 10 0 16 -9 16
-21z m-440 -9 c0 -13 -7 -20 -20 -20 -19 0 -27 20 -13 33 13 14 33 6 33 -13z
m370 0 c0 -11 -7 -20 -15 -20 -8 0 -15 9 -15 20 0 11 7 20 15 20 8 0 15 -9 15
-20z m-70 -9 c0 -19 -23 -35 -34 -24 -14 15 -5 43 14 43 13 0 20 -7 20 -19z
m-380 -5 c0 -8 -7 -17 -16 -20 -23 -9 -24 -8 -24 14 0 13 7 20 20 20 11 0 20
-6 20 -14z m300 -16 c0 -11 -4 -20 -10 -20 -5 0 -10 9 -10 20 0 11 5 20 10 20
6 0 10 -9 10 -20z m-62 -13 c2 -10 -3 -17 -12 -17 -10 0 -16 9 -16 21 0 24 23
21 28 -4z m-78 -17 c0 -11 -7 -20 -15 -20 -8 0 -15 9 -15 20 0 11 7 20 15 20
8 0 15 -9 15 -20z m370 -5 c0 -16 -6 -25 -15 -25 -9 0 -15 9 -15 25 0 16 6 25
15 25 9 0 15 -9 15 -25z m-70 -10 c0 -16 -6 -25 -15 -25 -15 0 -21 31 -8 43
13 14 23 6 23 -18z m-382 -2 c-5 -25 -28 -28 -28 -4 0 12 6 21 16 21 9 0 14
-7 12 -17z m312 -13 c0 -13 -7 -20 -20 -20 -13 0 -20 7 -20 20 0 13 7 20 20
20 13 0 20 -7 20 -20z m-84 -26 c-5 -13 -10 -14 -18 -6 -6 6 -8 18 -4 28 5 13
10 14 18 6 6 -6 8 -18 4 -28z m-66 -4 c0 -11 -7 -20 -15 -20 -8 0 -15 9 -15
20 0 11 7 20 15 20 8 0 15 -9 15 -20z m-80 -20 c0 -11 -7 -20 -15 -20 -8 0
-15 9 -15 20 0 11 7 20 15 20 8 0 15 -9 15 -20z m303 -4 c7 -16 -1 -26 -20
-26 -7 0 -13 9 -13 20 0 23 25 27 33 6z m-73 -16 c0 -13 -7 -20 -20 -20 -22 0
-28 25 -7 33 22 10 27 7 27 -13z m-80 -14 c0 -8 -4 -18 -10 -21 -5 -3 -10 3
-10 14 0 12 5 21 10 21 6 0 10 -6 10 -14z m160 -40 c0 -8 -7 -17 -16 -20 -23
-9 -24 -8 -24 14 0 13 7 20 20 20 11 0 20 -6 20 -14z"/>
<path d="M3755 5540 c-3 -5 4 -29 16 -52 130 -256 665 -683 1043 -833 85 -33
247 -75 291 -75 27 0 32 3 28 19 -4 14 -17 20 -61 24 -187 17 -559 210 -837
434 -135 109 -329 310 -395 411 -52 78 -71 94 -85 72z"/>
<path d="M3662 5452 c-77 -106 -76 -103 -44 -161 170 -316 852 -808 1264 -913
l82 -20 23 28 c53 64 113 146 113 154 0 4 -30 13 -67 20 -407 70 -1052 519
-1260 877 -27 45 -51 82 -55 83 -3 0 -29 -30 -56 -68z m58 -18 c0 -12 -61 -94
-70 -94 -15 0 -13 6 22 55 28 40 48 56 48 39z m4 -119 c-21 -26 -40 -42 -42
-36 -6 17 60 103 71 92 6 -6 -5 -27 -29 -56z m1046 -731 c0 -3 -14 -25 -30
-49 -21 -30 -35 -42 -46 -38 -13 5 -13 8 1 27 8 11 20 31 27 44 10 19 48 32
48 16z m126 -40 c27 -9 51 -18 53 -20 5 -4 -61 -94 -69 -94 -16 0 -100 33
-105 41 -8 11 44 89 60 89 6 0 34 -7 61 -16z m117 -30 c6 -7 -46 -88 -63 -99
-6 -3 -14 -3 -20 0 -5 3 7 28 27 55 37 50 44 55 56 44z"/>
<path d="M3554 5209 c-24 -48 -52 -139 -43 -139 16 0 10 -29 -10 -49 -23 -23
-45 -164 -36 -232 5 -33 3 -49 -4 -49 -6 0 -11 -7 -11 -15 0 -8 7 -15 15 -15
21 0 19 -27 -2 -39 -16 -10 -16 -11 5 -17 13 -4 22 -14 22 -26 0 -10 8 -30 17
-44 16 -26 17 -26 25 -5 8 24 38 29 38 6 0 -7 -7 -18 -16 -23 -19 -10 -11 -32
12 -32 8 0 14 -6 14 -14 0 -21 30 -41 56 -38 17 2 24 -2 24 -12 0 -9 -5 -16
-12 -16 -6 0 1 -13 17 -30 34 -35 45 -38 45 -10 0 24 35 28 44 4 10 -25 7 -34
-9 -34 -24 0 -18 -13 19 -42 41 -33 49 -35 41 -8 -5 15 -2 20 13 20 25 0 36
-37 15 -48 -12 -7 -9 -12 13 -27 19 -12 29 -14 32 -7 6 18 52 15 52 -3 0 -8
-7 -15 -15 -15 -24 0 -17 -13 20 -37 40 -26 46 -28 42 -10 -1 7 10 13 26 15
23 3 27 0 27 -22 0 -14 -6 -26 -12 -26 -7 0 0 -9 16 -19 22 -15 34 -17 48 -10
14 8 18 6 18 -9 0 -12 17 -28 50 -46 28 -15 50 -22 50 -17 0 6 9 11 20 11 13
0 20 -7 20 -19 0 -24 91 -64 98 -43 4 14 32 16 32 2 0 -16 27 -11 34 6 5 12
14 15 36 10 17 -3 30 -1 30 4 0 6 12 10 28 10 36 1 167 71 167 90 0 9 10 15
26 15 39 0 159 84 159 111 0 15 10 26 31 34 27 11 29 14 14 23 -10 5 -37 7
-61 3 -35 -4 -44 -2 -44 9 0 24 -39 38 -86 31 -35 -4 -44 -3 -44 9 0 8 6 15
13 15 6 1 -1 8 -16 16 -16 9 -35 13 -42 10 -7 -2 -19 2 -26 10 -7 9 -30 24
-52 35 -32 17 -44 18 -69 10 -29 -10 -30 -9 -26 13 5 27 -18 46 -57 46 -16 0
-25 6 -25 16 0 8 -19 24 -45 35 -25 11 -45 23 -45 27 0 4 -21 20 -46 36 -34
21 -48 26 -57 17 -18 -18 -30 -13 -25 13 6 29 -27 51 -66 44 -14 -3 -26 -1
-26 3 0 5 7 9 16 9 25 0 13 16 -51 65 -72 56 -187 158 -227 201 -21 23 -35 30
-50 26 -18 -4 -20 -2 -15 19 4 18 -2 33 -23 57 -17 17 -34 32 -40 32 -5 0 -10
6 -10 13 0 16 -59 97 -71 97 -4 0 -16 -14 -25 -31z m46 -14 c0 -8 -9 -15 -20
-15 -11 0 -20 7 -20 15 0 8 9 15 20 15 11 0 20 -7 20 -15z m0 -60 c0 -8 -9
-15 -20 -15 -22 0 -27 15 -7 23 21 9 27 7 27 -8z m80 -45 c0 -11 -7 -20 -15
-20 -27 0 -18 30 13 39 1 1 2 -8 2 -19z m-80 -20 c0 -13 -7 -20 -20 -20 -25 0
-27 27 -2 33 9 3 18 5 20 6 1 0 2 -8 2 -19z m78 -52 c-6 -18 -28 -21 -28 -4 0
9 7 16 16 16 9 0 14 -5 12 -12z m-82 -25 c-3 -3 -13 -2 -23 2 -17 7 -17 8 2
15 19 7 34 -5 21 -17z m-76 -8 c0 -8 -7 -15 -15 -15 -26 0 -18 20 13 29 1 1 2
-6 2 -14z m230 -20 c0 -8 -4 -15 -10 -15 -5 0 -10 7 -10 15 0 8 5 15 10 15 6
0 10 -7 10 -15z m-65 -16 c-8 -12 -35 -12 -35 0 0 11 22 20 33 14 4 -2 5 -9 2
-14z m-77 -11 c-7 -19 -38 -22 -38 -4 0 10 9 16 21 16 12 0 19 -5 17 -12z
m-78 -23 c0 -8 -7 -15 -15 -15 -8 0 -15 7 -15 15 0 8 7 15 15 15 8 0 15 -7 15
-15z m300 -5 c0 -11 -7 -20 -15 -20 -8 0 -15 9 -15 20 0 11 7 20 15 20 8 0 15
-9 15 -20z m-72 -17 c-4 -22 -22 -20 -26 1 -2 10 3 16 13 16 10 0 15 -7 13
-17z m-68 -13 c0 -13 -7 -20 -20 -20 -19 0 -27 20 -13 33 13 14 33 6 33 -13z
m-80 -20 c0 -13 -7 -20 -20 -20 -13 0 -20 7 -20 20 0 13 7 20 20 20 13 0 20
-7 20 -20z m-80 -15 c0 -8 -7 -15 -15 -15 -8 0 -15 7 -15 15 0 8 7 15 15 15 8
0 15 -7 15 -15z m388 -2 c2 -8 -5 -13 -17 -13 -12 0 -21 6 -21 16 0 18 31 15
38 -3z m-78 -8 c0 -8 -7 -15 -15 -15 -8 0 -15 7 -15 15 0 8 7 15 15 15 8 0 15
-7 15 -15z m-70 -9 c0 -8 -7 -16 -15 -20 -10 -4 -15 1 -15 14 0 11 7 20 15 20
8 0 15 -6 15 -14z m-70 -11 c0 -16 -27 -32 -37 -22 -3 4 -3 13 0 22 8 20 37
20 37 0z m-80 -19 c0 -8 -7 -17 -16 -20 -23 -9 -24 -8 -24 14 0 13 7 20 20 20
11 0 20 -6 20 -14z m-80 -16 c0 -11 -7 -20 -15 -20 -8 0 -15 9 -15 20 0 11 7
20 15 20 8 0 15 -9 15 -20z m460 0 c0 -11 -6 -20 -14 -20 -21 0 -31 21 -15 31
22 14 29 11 29 -11z m-75 -10 c0 -8 -8 -16 -17 -18 -13 -2 -18 3 -18 18 0 15
5 20 18 18 9 -2 17 -10 17 -18z m-75 -10 c0 -11 -7 -20 -15 -20 -8 0 -15 9
-15 20 0 11 7 20 15 20 8 0 15 -9 15 -20z m-70 -10 c0 -23 -25 -27 -33 -6 -7
16 1 26 20 26 7 0 13 -9 13 -20z m-72 -13 c2 -11 -3 -17 -16 -17 -20 0 -36 23
-24 34 11 12 37 1 40 -17z m-89 -28 c-21 -13 -26 -11 -32 10 -3 13 1 21 12 23
22 5 38 -22 20 -33z m-69 1 c0 -11 -7 -20 -15 -20 -8 0 -15 9 -15 20 0 11 7
20 15 20 8 0 15 -9 15 -20z m452 -2 c-6 -6 -16 -7 -22 -3 -9 6 -9 9 1 16 17
10 34 0 21 -13z m-67 2 c3 -6 -1 -13 -10 -16 -19 -8 -30 0 -20 15 8 14 22 14
30 1z m-75 -15 c0 -8 -9 -15 -20 -15 -20 0 -26 11 -13 23 12 13 33 7 33 -8z
m-70 -10 c0 -8 -9 -15 -20 -15 -20 0 -26 11 -13 23 12 13 33 7 33 -8z m-77 -9
c3 -8 -2 -16 -14 -19 -23 -6 -37 12 -18 24 19 12 26 11 32 -5z m387 -11 c0
-21 -30 -31 -41 -14 -14 23 -11 29 16 29 16 0 25 -6 25 -15z m-470 -11 c0 -9
-7 -14 -17 -12 -25 5 -28 28 -4 28 12 0 21 -6 21 -16z m390 -4 c0 -13 -7 -20
-20 -20 -13 0 -20 7 -20 20 0 13 7 20 20 20 13 0 20 -7 20 -20z m-460 -5 c0
-8 -7 -15 -15 -15 -8 0 -15 7 -15 15 0 8 7 15 15 15 8 0 15 -7 15 -15z m385
-5 c0 -22 -39 -19 -43 3 -3 15 1 18 20 15 12 -2 23 -10 23 -18z m-75 -10 c0
-13 -7 -20 -20 -20 -13 0 -20 7 -20 20 0 13 7 20 20 20 13 0 20 -7 20 -20z
m-70 -10 c0 -13 -7 -20 -20 -20 -13 0 -20 7 -20 20 0 13 7 20 20 20 13 0 20
-7 20 -20z m-80 -10 c0 -13 -7 -20 -20 -20 -19 0 -27 20 -13 33 13 14 33 6 33
-13z m520 -17 c0 -7 -4 -13 -10 -13 -5 0 -10 12 -10 28 0 21 2 24 10 12 5 -8
10 -21 10 -27z m-57 6 c3 -12 0 -22 -9 -26 -18 -6 -19 -5 -28 25 -6 18 -3 22
12 22 11 0 22 -9 25 -21z m-543 -3 c0 -8 -7 -16 -15 -20 -8 -3 -15 -4 -15 -2
0 3 -3 11 -6 20 -4 12 0 16 15 16 12 0 21 -6 21 -14z m470 -11 c0 -18 -5 -25
-20 -25 -11 0 -20 4 -20 9 0 5 -3 16 -6 25 -5 12 0 16 20 16 21 0 26 -5 26
-25z m-80 -11 c0 -33 -33 -30 -38 4 -3 17 2 22 17 22 16 0 21 -6 21 -26z m-70
-3 c0 -23 -30 -37 -42 -19 -14 24 -8 38 17 38 18 0 25 -5 25 -19z m-80 -11 c0
-13 -7 -20 -20 -20 -13 0 -20 7 -20 20 0 13 7 20 20 20 13 0 20 -7 20 -20z
m-70 -10 c0 -13 -7 -20 -20 -20 -13 0 -20 7 -20 20 0 13 7 20 20 20 13 0 20
-7 20 -20z m-80 -10 c0 -13 -7 -20 -20 -20 -13 0 -20 7 -20 20 0 13 7 20 20
20 13 0 20 -7 20 -20z m-80 -10 c0 -23 -25 -27 -33 -6 -5 13 5 23 26 25 4 1 7
-8 7 -19z m670 4 c0 -9 -7 -14 -17 -12 -25 5 -28 28 -4 28 12 0 21 -6 21 -16z
m-127 -14 c4 -15 0 -20 -13 -20 -18 0 -34 23 -23 34 13 12 31 5 36 -14z m57 5
c0 -8 -4 -15 -10 -15 -5 0 -10 7 -10 15 0 8 5 15 10 15 6 0 10 -7 10 -15z
m-130 -15 c0 -23 -35 -28 -43 -6 -7 18 1 26 25 26 11 0 18 -7 18 -20z m-80
-10 c0 -11 -7 -20 -15 -20 -8 0 -15 2 -15 4 0 2 -3 11 -6 20 -4 12 0 16 15 16
14 0 21 -6 21 -20z m-150 -10 c0 -13 -7 -20 -20 -20 -22 0 -28 25 -7 33 22 10
27 7 27 -13z m80 5 c0 -8 -9 -15 -19 -15 -10 0 -21 7 -25 15 -4 11 1 15 19 15
16 0 25 -6 25 -15z m-150 -10 c0 -8 -9 -15 -20 -15 -11 0 -20 7 -20 15 0 8 9
15 20 15 11 0 20 -7 20 -15z m-80 -10 c0 -8 -9 -15 -20 -15 -11 0 -20 7 -20
15 0 8 9 15 20 15 11 0 20 -7 20 -15z m660 -5 c0 -11 -7 -20 -15 -20 -15 0
-21 21 -8 33 12 13 23 7 23 -13z m-70 -10 c0 -23 -25 -27 -33 -6 -7 16 1 26
20 26 7 0 13 -9 13 -20z m-127 -32 c-4 -8 -33 -11 -33 -4 0 2 -3 11 -6 19 -8
21 29 27 37 7 4 -8 5 -18 2 -22z m57 21 c0 -24 -23 -21 -28 4 -2 10 3 17 12
17 10 0 16 -9 16 -21z m-130 -14 c0 -31 -35 -35 -43 -6 -6 24 0 31 25 31 13 0
18 -7 18 -25z m-146 -1 c10 -27 7 -34 -19 -34 -39 0 -33 44 6 49 4 1 10 -6 13
-15z m69 -4 c4 -15 0 -20 -14 -20 -12 0 -19 7 -19 20 0 11 6 20 14 20 7 0 16
-9 19 -20z m-153 -15 c0 -18 -5 -25 -20 -25 -15 0 -20 7 -20 25 0 18 5 25 20
25 15 0 20 -7 20 -25z m660 21 c0 -2 -3 -11 -6 -20 -9 -23 -24 -20 -24 4 0 11
7 20 15 20 8 0 15 -2 15 -4z m-730 -26 c0 -13 -7 -20 -20 -20 -13 0 -20 7 -20
20 0 13 7 20 20 20 13 0 20 -7 20 -20z m660 -5 c0 -8 -9 -15 -20 -15 -11 0
-20 7 -20 15 0 8 9 15 20 15 11 0 20 -7 20 -15z m-80 -10 c0 -8 -7 -15 -15
-15 -8 0 -15 7 -15 15 0 8 7 15 15 15 8 0 15 -7 15 -15z m-70 -11 c0 -9 -7
-14 -17 -12 -25 5 -28 28 -4 28 12 0 21 -6 21 -16z m-130 -14 c0 -11 -6 -20
-14 -20 -18 0 -29 16 -21 30 11 18 35 11 35 -10z m60 5 c0 -8 -7 -15 -15 -15
-8 0 -15 7 -15 15 0 8 7 15 15 15 8 0 15 -7 15 -15z m-130 -15 c0 -13 -7 -20
-20 -20 -13 0 -20 7 -20 20 0 13 7 20 20 20 13 0 20 -7 20 -20z m490 5 c0 -8
-7 -15 -15 -15 -26 0 -18 20 13 29 1 1 2 -6 2 -14z m-630 -20 c0 -18 -5 -25
-20 -25 -11 0 -20 2 -20 4 0 2 -3 11 -6 19 -4 11 2 17 18 20 13 2 24 5 26 6 1
0 2 -10 2 -24z m68 2 c2 -10 -3 -17 -12 -17 -9 0 -16 2 -16 4 0 2 -3 12 -6 21
-5 13 -2 16 12 13 10 -2 20 -11 22 -21z m-150 -15 c3 -20 0 -23 -20 -20 -15 2
-24 11 -26 26 -3 20 0 23 20 20 15 -2 24 -11 26 -26z m640 17 c-2 -6 -8 -10
-13 -10 -5 0 -11 4 -13 10 -2 6 4 11 13 11 9 0 15 -5 13 -11z m-68 -14 c0 -8
-9 -15 -20 -15 -20 0 -26 11 -13 23 12 13 33 7 33 -8z m-70 -10 c0 -8 -7 -15
-15 -15 -8 0 -15 7 -15 15 0 8 7 15 15 15 8 0 15 -7 15 -15z m340 1 c0 -16
-18 -31 -27 -22 -8 8 5 36 17 36 5 0 10 -6 10 -14z m-410 -11 c0 -8 -9 -15
-20 -15 -11 0 -20 7 -20 15 0 8 9 15 20 15 11 0 20 -7 20 -15z m-70 -10 c0 -8
-7 -15 -15 -15 -8 0 -15 7 -15 15 0 8 7 15 15 15 8 0 15 -7 15 -15z m420 1 c0
-17 -27 -29 -35 -16 -4 6 -3 15 0 20 9 15 35 12 35 -4z m-550 -16 c0 -13 -7
-20 -20 -20 -13 0 -20 7 -20 20 0 13 7 20 20 20 13 0 20 -7 20 -20z m70 5 c0
-8 -9 -15 -20 -15 -11 0 -20 7 -20 15 0 8 9 15 20 15 11 0 20 -7 20 -15z m410
-11 c0 -8 -7 -14 -15 -14 -15 0 -21 21 -9 33 10 9 24 -2 24 -19z m-550 -4 c0
-11 -7 -20 -15 -20 -8 0 -15 9 -15 20 0 11 7 20 15 20 8 0 15 -9 15 -20z m-67
-4 c3 -8 -1 -17 -9 -20 -26 -10 -34 -7 -34 14 0 23 35 28 43 6z m547 0 c0 -8
-4 -18 -10 -21 -5 -3 -10 3 -10 14 0 12 5 21 10 21 6 0 10 -6 10 -14z m-60
-16 c0 -13 -7 -20 -20 -20 -13 0 -20 7 -20 20 0 13 7 20 20 20 13 0 20 -7 20
-20z m320 -5 c0 -28 -17 -34 -27 -9 -3 9 0 20 8 25 19 12 19 12 19 -16z m-392
-8 c2 -12 -3 -17 -17 -17 -12 0 -21 6 -21 13 0 31 32 34 38 4z m-68 -7 c0 -13
-7 -20 -20 -20 -19 0 -27 20 -13 33 13 14 33 6 33 -13z m400 0 c0 -11 -7 -20
-15 -20 -15 0 -21 21 -8 33 12 13 23 7 23 -13z m-472 -13 c2 -10 -3 -17 -12
-17 -10 0 -16 9 -16 21 0 24 23 21 28 -4z m-58 -7 c0 -13 -7 -20 -20 -20 -13
0 -20 7 -20 20 0 13 7 20 20 20 13 0 20 -7 20 -20z m468 3 c-5 -25 -28 -28
-28 -4 0 12 6 21 16 21 9 0 14 -7 12 -17z m-538 -13 c0 -13 -7 -20 -20 -20
-13 0 -20 7 -20 20 0 13 7 20 20 20 13 0 20 -7 20 -20z m470 0 c0 -11 -4 -20
-10 -20 -5 0 -10 9 -10 20 0 11 5 20 10 20 6 0 10 -9 10 -20z m-540 -11 c0
-24 -23 -21 -28 4 -2 10 3 17 12 17 10 0 16 -9 16 -21z m480 -9 c0 -11 -7 -20
-15 -20 -8 0 -15 9 -15 20 0 11 7 20 15 20 8 0 15 -9 15 -20z m-70 -10 c0 -13
-7 -20 -20 -20 -19 0 -27 20 -13 33 13 14 33 6 33 -13z m-70 -9 c0 -10 -7 -21
-15 -25 -15 -5 -22 24 -8 37 12 13 23 7 23 -12z m-62 -13 c2 -9 -6 -18 -18
-21 -14 -4 -20 0 -20 12 0 33 32 41 38 9z m-74 -4 c8 -22 8 -24 -8 -24 -18 0
-29 16 -21 30 9 15 22 12 29 -6z m-64 -14 c0 -11 -7 -20 -15 -20 -8 0 -15 9
-15 20 0 11 7 20 15 20 8 0 15 -9 15 -20z m-60 -10 c0 -13 -7 -20 -20 -20 -13
0 -20 7 -20 20 0 13 7 20 20 20 13 0 20 -7 20 -20z m460 -5 c0 -8 -4 -15 -10
-15 -5 0 -10 7 -10 15 0 8 5 15 10 15 6 0 10 -7 10 -15z m-60 -10 c0 -8 -7
-15 -15 -15 -8 0 -15 7 -15 15 0 8 7 15 15 15 8 0 15 -7 15 -15z m-70 -9 c0
-8 -7 -16 -15 -20 -10 -4 -15 1 -15 14 0 11 7 20 15 20 8 0 15 -6 15 -14z
m-60 -10 c0 -8 -7 -17 -16 -20 -23 -9 -24 -8 -24 14 0 13 7 20 20 20 11 0 20
-6 20 -14z m-70 -10 c0 -15 -24 -28 -34 -19 -13 14 -5 33 14 33 11 0 20 -6 20
-14z m-70 -11 c0 -8 -7 -15 -15 -15 -8 0 -15 7 -15 15 0 8 7 15 15 15 8 0 15
-7 15 -15z"/>
<path d="M3422 4538 c-9 -50 -9 -54 20 -96 104 -151 337 -341 545 -446 85 -42
217 -96 237 -96 8 0 33 12 55 27 40 26 52 43 30 43 -19 0 -256 117 -342 169
-170 102 -364 263 -464 382 -31 38 -60 69 -64 69 -3 0 -11 -23 -17 -52z"/>
<path d="M3324 4380 c-38 -57 -51 -69 -68 -65 -34 8 -279 53 -436 81 -80 13
-185 27 -235 31 -85 5 -96 3 -195 -30 -58 -20 -134 -43 -169 -52 -133 -32
-234 -109 -260 -197 -7 -24 -34 -90 -61 -148 -26 -58 -50 -113 -54 -123 -3
-10 -36 -32 -73 -48 -234 -106 -265 -131 -333 -274 -63 -133 -72 -169 -76
-300 -4 -149 -11 -177 -90 -345 -102 -217 -113 -288 -63 -389 27 -54 31 -70
27 -124 -3 -50 -11 -75 -43 -127 -34 -57 -39 -74 -43 -141 -5 -86 17 -208 47
-267 11 -21 75 -92 143 -158 l124 -120 -53 -79 c-29 -44 -53 -84 -53 -88 0
-39 205 -256 305 -324 112 -75 271 -143 337 -143 7 0 51 50 97 110 47 61 88
113 92 115 3 3 73 -23 153 -56 169 -69 225 -80 291 -55 86 33 205 183 205 259
0 23 5 28 39 33 105 17 193 118 280 323 44 105 58 186 38 233 l-15 36 47 7
c66 9 104 35 147 99 37 56 54 63 54 22 0 -36 58 -142 103 -189 49 -50 121 -88
182 -95 60 -6 95 18 175 119 73 92 178 187 266 238 84 49 108 73 184 186 86
127 128 180 232 292 81 86 86 95 107 170 48 179 34 215 -199 508 -164 206
-300 414 -300 458 0 8 9 26 21 41 31 40 20 70 -33 85 -61 18 -230 100 -313
151 -163 100 -335 250 -428 373 -15 20 -34 37 -42 37 -8 0 -36 -31 -61 -70z
m-540 -41 c122 -20 410 -76 433 -84 12 -4 -6 -40 -59 -113 -16 -23 -17 -23
-42 -7 -14 10 -23 22 -19 28 3 6 1 7 -5 3 -13 -8 -75 28 -65 38 4 4 -1 4 -11
0 -12 -4 -17 -4 -13 2 3 5 -2 10 -11 11 -9 1 -44 9 -77 17 -64 17 -165 21
-165 8 0 -5 24 -14 53 -21 28 -6 69 -19 91 -29 l38 -17 -98 -1 c-109 -1 -183
-22 -239 -69 -34 -28 -24 -32 29 -10 56 24 198 29 294 11 181 -32 376 -159
597 -387 234 -241 365 -438 365 -546 0 -52 -21 -117 -65 -199 -20 -38 -34 -62
-31 -53 2 9 1 21 -4 28 -4 7 -2 25 6 40 25 51 36 86 40 126 l4 40 -28 -50
c-67 -118 -81 -140 -92 -137 -6 1 -10 -4 -8 -12 4 -19 -109 -156 -128 -156 -9
0 -12 5 -8 11 4 8 1 8 -13 1 -12 -7 -25 -7 -34 -1 -12 7 -7 13 12 11 3 -1 6 5
6 13 0 10 -5 10 -23 -3 -22 -17 -22 -17 -2 -28 14 -8 17 -13 9 -18 -17 -11 -3
-26 16 -19 10 4 14 2 10 -4 -3 -5 0 -10 8 -10 8 0 12 4 9 9 -3 4 0 8 6 8 6 0
26 11 44 25 34 26 52 32 41 15 -10 -16 1 -11 16 7 12 14 12 16 -1 9 -8 -5 -1
6 17 23 18 17 37 31 43 31 6 0 8 5 5 10 -3 6 3 22 14 36 12 15 21 25 22 23 0
-2 2 -14 3 -27 2 -12 9 -28 17 -35 7 -7 10 -8 6 -3 -8 10 12 38 22 31 4 -2 8
1 8 8 0 14 54 99 59 94 2 -2 -1 -20 -7 -40 -6 -23 -14 -35 -21 -31 -6 4 -8 3
-4 -4 3 -6 2 -22 -4 -37 -8 -21 -13 -25 -23 -16 -10 8 -14 7 -14 -4 0 -8 4
-12 9 -9 20 13 5 -20 -22 -46 -17 -17 -28 -30 -25 -30 3 0 0 -6 -7 -14 -7 -7
-19 -11 -26 -9 -7 3 -10 0 -7 -9 7 -17 -69 -58 -130 -69 -59 -11 -213 30 -198
54 3 6 1 7 -5 3 -10 -6 -56 15 -111 49 -82 52 -130 89 -124 98 3 6 1 7 -5 3
-6 -3 -15 2 -21 11 -6 10 -11 14 -11 9 0 -5 -7 -3 -15 4 -8 7 -12 17 -8 23 3
5 2 7 -4 4 -5 -4 -19 1 -29 11 -10 9 -32 25 -47 35 -25 16 -27 21 -15 35 11
15 11 15 -2 5 -23 -18 -81 21 -76 50 2 12 6 22 9 22 14 0 136 -108 131 -116
-3 -5 0 -8 6 -7 20 5 159 -115 154 -132 -4 -11 -2 -12 7 -3 14 14 62 -4 52
-20 -3 -6 -1 -7 4 -4 6 4 31 -2 54 -13 54 -24 85 -25 127 -2 30 16 112 105
112 122 0 4 -19 1 -42 -7 -49 -17 -146 -12 -163 9 -5 7 -15 14 -22 15 -30 6
-122 60 -116 68 5 4 3 5 -3 2 -13 -7 -124 50 -124 63 0 5 6 7 14 4 8 -3 16 -1
20 4 3 5 -5 8 -17 7 -12 -1 -28 3 -36 9 -12 9 -13 8 -7 -2 5 -8 -8 -3 -27 9
-19 13 -33 28 -30 33 4 5 1 6 -5 2 -9 -5 -110 58 -132 83 -3 3 -21 17 -40 30
-19 14 -39 30 -43 38 -4 7 -13 13 -19 13 -11 0 -136 103 -197 162 -19 18 -29
24 -21 13 7 -11 -5 -2 -27 20 -21 22 -43 42 -49 44 -5 3 -24 19 -42 37 -32 31
-32 33 -14 43 11 6 21 8 24 6 2 -2 4 6 3 20 0 13 -4 27 -8 31 -4 5 -5 0 -1
-11 7 -18 6 -18 -9 -7 -22 18 -40 7 -27 -18 7 -13 6 -19 -4 -23 -16 -6 -26 1
-26 17 0 6 5 4 11 -4 9 -13 10 -13 6 0 -2 8 -10 14 -17 12 -7 -2 -20 3 -29 11
-19 17 -49 34 -39 22 4 -4 2 -15 -5 -23 -8 -11 -8 -14 0 -9 7 5 17 -11 28 -45
10 -29 24 -63 32 -76 7 -12 11 -28 7 -34 -4 -6 -3 -8 3 -5 5 4 16 -5 23 -19 8
-13 29 -36 47 -50 18 -14 30 -30 27 -36 -4 -7 -2 -8 4 -4 12 7 86 -27 98 -45
3 -6 0 -15 -7 -20 -9 -6 -10 -9 -2 -9 6 0 14 4 18 10 3 5 12 7 20 4 8 -4 12
-11 8 -17 -3 -6 -1 -7 6 -3 6 4 24 0 38 -9 21 -14 23 -19 12 -27 -11 -8 -10
-8 5 -4 19 6 86 -28 86 -45 0 -5 4 -8 9 -6 11 3 141 -93 141 -105 0 -4 -8 -5
-17 -1 -15 5 -14 3 2 -10 17 -14 17 -16 4 -17 -17 0 -42 23 -34 32 3 2 -1 5
-7 5 -7 0 -65 35 -128 77 -63 42 -118 76 -123 76 -4 0 -5 4 -2 10 3 5 0 8 -7
5 -22 -8 -228 153 -228 179 0 8 -5 18 -10 21 -6 4 -7 11 -4 17 5 7 2 8 -5 3
-9 -5 -10 -10 -2 -18 6 -6 11 -16 11 -21 0 -11 -26 23 -30 39 -2 6 -11 16 -22
23 -10 7 -16 18 -13 23 4 5 2 9 -4 9 -6 0 -7 7 -4 17 4 10 2 14 -5 9 -6 -3
-18 4 -26 16 l-16 22 0 -25 c0 -19 36 -104 77 -180 2 -3 -18 -1 -44 4 -51 10
-152 1 -137 -12 5 -5 41 -16 79 -25 97 -23 197 -62 242 -95 21 -15 94 -62 163
-106 120 -75 296 -203 485 -351 50 -39 110 -83 135 -97 50 -29 145 -122 184
-181 32 -48 34 -106 6 -161 -23 -45 -25 -56 -8 -53 7 2 19 16 27 32 10 18 17
24 19 16 3 -8 0 -16 -7 -18 -6 -2 -9 -8 -6 -13 9 -13 -15 -50 -27 -43 -7 4 -8
3 -4 -4 8 -13 -20 -71 -81 -167 -25 -38 -47 -72 -49 -74 -2 -2 -12 2 -21 10
-16 12 -16 11 1 -8 18 -22 18 -22 -14 -42 -52 -31 -109 -35 -176 -11 -32 11
-60 20 -62 20 -2 0 -1 4 2 9 3 5 -8 11 -25 15 -20 4 -28 10 -23 17 4 7 3 9 -4
5 -12 -7 -62 13 -62 25 0 4 -10 11 -22 14 -11 4 -44 21 -72 38 -28 16 -82 46
-121 65 -38 19 -76 42 -83 51 -7 9 -10 10 -6 2 8 -16 2 -13 -71 37 -27 19 -54
41 -58 49 -4 7 -15 13 -23 13 -9 0 -12 5 -8 12 4 6 3 8 -4 5 -5 -4 -34 9 -63
28 -30 19 -49 35 -44 35 6 1 -4 7 -22 15 -17 7 -40 22 -50 32 -11 10 -45 36
-77 57 -32 22 -60 46 -63 53 -3 7 -9 11 -13 8 -5 -3 -48 33 -96 79 -65 64 -85
90 -81 105 3 12 0 18 -7 15 -13 -5 -72 111 -69 135 1 9 -2 10 -10 2 -21 -21
39 -195 94 -272 l22 -31 -57 3 c-31 2 -56 0 -56 -5 0 -4 -8 -6 -18 -4 -10 3
-23 -1 -30 -8 -14 -15 -16 -14 98 -33 85 -14 219 -80 340 -169 164 -118 303
-209 416 -270 378 -204 405 -223 407 -286 1 -40 21 -57 23 -19 4 58 34 32 34
-29 0 -20 -5 -49 -12 -65 -6 -15 -11 -31 -10 -35 1 -5 -3 -8 -9 -8 -5 0 -7 -4
-4 -10 6 -11 -32 -91 -49 -102 -6 -4 -8 -8 -3 -8 4 0 0 -14 -8 -30 -9 -17 -20
-28 -26 -25 -5 4 -9 3 -8 -2 4 -15 -20 -58 -48 -88 -29 -31 -81 -60 -91 -50
-3 3 -1 5 5 5 5 0 10 7 10 14 0 11 -5 12 -17 6 -10 -5 -20 -6 -24 -3 -3 3 -6
1 -6 -6 0 -6 -9 -10 -22 -7 -39 7 -158 66 -158 78 0 6 -3 9 -6 5 -9 -9 -86 32
-79 43 3 5 0 12 -6 16 -8 4 -9 3 -5 -4 4 -7 2 -12 -4 -12 -7 0 -9 7 -6 16 5
14 4 15 -9 4 -12 -10 -20 -9 -42 6 -16 10 -46 28 -68 39 -109 56 -144 79 -138
88 3 6 1 7 -5 3 -12 -7 -232 113 -232 127 0 5 5 5 12 1 7 -4 8 -3 4 5 -4 6
-11 9 -16 6 -12 -8 -70 22 -70 36 0 6 -4 7 -10 4 -5 -3 -10 -3 -10 2 0 4 -13
14 -30 21 -16 7 -43 26 -59 41 -17 16 -32 27 -34 25 -1 -2 -30 22 -62 52 -33
30 -53 52 -45 49 8 -4 4 3 -9 15 -21 18 -23 23 -10 31 11 8 10 9 -6 7 -15 -2
-30 17 -70 90 -29 50 -54 90 -57 87 -15 -16 43 -181 87 -247 14 -21 22 -38 18
-38 -5 1 -27 5 -51 9 -24 5 -45 5 -48 -1 -3 -5 -15 -6 -27 -3 -17 5 -19 4 -7
-4 13 -9 13 -11 -2 -11 -10 0 -18 -4 -18 -9 0 -4 28 -11 63 -14 74 -7 156 -36
213 -74 171 -116 235 -157 349 -225 72 -42 158 -92 192 -109 34 -18 60 -36 57
-41 -3 -4 1 -5 9 -2 8 3 21 -2 30 -10 9 -9 20 -16 26 -16 6 0 11 -5 11 -10 0
-6 3 -9 8 -8 16 4 52 -14 46 -24 -4 -7 -2 -8 4 -4 7 4 49 -13 95 -38 75 -41
83 -48 85 -77 3 -37 -15 -99 -29 -99 -13 0 -11 18 4 23 6 2 -2 4 -19 3 -21 -1
-31 -6 -30 -17 1 -8 -11 -30 -26 -48 -16 -18 -28 -29 -29 -24 0 4 -5 -3 -10
-16 -6 -15 -14 -21 -25 -17 -8 3 -13 2 -9 -3 3 -5 -1 -11 -7 -14 -7 -2 -10 -7
-7 -11 11 -12 86 13 93 30 4 10 12 14 24 9 13 -5 14 -4 5 6 -9 9 -9 18 3 40 8
16 19 29 25 29 11 0 -5 -35 -21 -45 -6 -4 -8 -11 -4 -16 7 -12 55 34 83 81 11
19 21 30 21 24 0 -15 -56 -91 -89 -122 -34 -31 -79 -54 -91 -47 -6 3 -10 1
-10 -5 0 -7 -8 -9 -20 -5 -11 3 -31 8 -46 11 -44 8 -154 56 -149 64 3 5 -3 8
-12 8 -37 -3 -404 143 -411 163 -2 5 -8 9 -14 9 -19 0 -217 123 -212 131 3 5
-2 6 -10 3 -21 -8 -20 10 1 27 11 10 14 10 9 2 -4 -8 -1 -13 8 -13 17 0 113
-64 134 -89 6 -8 12 -12 12 -8 0 4 9 3 20 -3 11 -6 17 -16 14 -22 -4 -6 -3 -8
4 -4 14 9 83 -25 75 -37 -3 -6 -1 -7 4 -4 6 4 35 -4 64 -17 30 -13 119 -45
199 -71 183 -60 229 -78 224 -86 -6 -10 57 6 86 21 14 7 31 22 38 32 7 10 17
16 21 14 4 -3 8 5 9 18 1 19 -6 24 -56 34 -102 21 -292 85 -285 95 3 6 1 7 -5
3 -6 -3 -29 1 -52 10 -30 12 -38 19 -28 26 8 5 2 6 -16 2 -22 -5 -27 -4 -21 6
5 8 3 11 -6 8 -8 -3 -30 2 -49 12 -19 10 -61 30 -93 44 -32 15 -55 31 -52 35
2 5 -1 8 -8 8 -21 -2 -97 35 -91 44 3 5 -3 9 -14 9 -27 0 -34 11 -19 29 10 14
10 14 -5 3 -20 -16 -39 -7 -148 73 -41 30 -92 67 -113 80 -22 15 -35 30 -31
37 4 6 3 8 -2 5 -5 -3 -42 25 -82 62 -40 37 -75 65 -79 62 -3 -3 -3 3 1 14 4
11 4 16 0 12 -10 -10 -35 13 -27 26 3 5 1 7 -5 3 -6 -3 -13 -2 -17 4 -9 15
-19 12 -33 -11 -8 -12 -9 -18 -3 -15 12 8 35 -70 25 -86 -4 -6 -3 -8 3 -5 6 4
14 -4 17 -17 3 -14 28 -49 56 -79 27 -30 46 -58 42 -62 -4 -5 -1 -5 5 -1 16 9
95 -54 89 -70 -3 -8 1 -11 9 -8 17 7 76 -36 68 -49 -3 -6 -2 -7 4 -4 11 7 53
-20 53 -34 0 -6 -5 -7 -12 -3 -7 4 -8 3 -4 -5 6 -9 11 -9 24 1 12 10 14 10 8
1 -4 -8 -1 -13 8 -13 18 0 21 -16 6 -25 -15 -9 -81 34 -73 48 3 7 3 9 -2 5
-10 -9 -67 31 -60 42 3 4 -1 7 -9 6 -15 -1 -127 95 -232 199 -55 54 -62 67
-77 130 -9 39 -20 91 -23 117 -7 53 3 121 16 113 6 -3 7 1 4 9 -3 8 3 23 13
34 10 10 19 25 21 33 2 7 8 20 13 29 7 11 8 9 5 -10 -2 -14 0 -34 4 -45 7 -19
8 -18 18 7 6 14 14 53 18 87 7 65 14 67 46 17 17 -27 19 -28 13 -6 -19 66 -61
143 -107 194 -10 10 -15 23 -12 28 3 4 1 8 -4 8 -13 0 -14 95 -1 140 8 27 17
39 26 36 11 -5 11 -1 2 15 -9 17 -8 20 2 14 8 -6 11 -4 7 7 -4 8 11 51 33 94
l39 79 -4 -71 c-4 -82 5 -110 23 -67 30 74 35 111 40 338 l6 240 43 97 c69
153 99 180 307 275 33 15 62 28 65 30 3 2 18 -22 35 -54 29 -56 48 -58 25 -3
-20 49 -15 122 13 184 14 31 31 56 36 56 7 0 11 -29 12 -72 1 -95 13 -56 23
72 9 126 27 180 78 225 93 85 197 112 375 99 120 -9 200 -6 178 8 -6 3 -50 11
-100 19 -86 12 -88 13 -60 26 37 16 146 10 319 -18z m535 -148 c-82 -127 -94
-140 -107 -127 -14 13 -12 20 14 58 16 24 34 48 39 55 6 6 34 50 64 98 47 75
56 84 68 72 13 -13 3 -33 -78 -156z m138 75 c-9 -23 -157 -245 -168 -252 -6
-3 -13 -4 -15 -1 -7 7 167 267 179 267 5 0 7 -6 4 -14z m431 -319 c8 -9 -3
-32 -43 -87 -30 -41 -72 -99 -92 -128 -73 -102 -69 -98 -87 -83 -15 13 -15 16
0 40 42 66 196 271 204 271 4 0 12 -6 18 -13z m140 -72 c2 -2 -54 -80 -124
-175 l-127 -172 -25 26 c-30 29 -39 11 110 218 l99 138 32 -16 c18 -9 33 -18
35 -19z m86 -31 c9 -3 16 -10 16 -16 0 -9 -211 -291 -268 -358 -27 -32 -31
-33 -38 -16 -4 10 -3 25 2 32 21 30 269 363 271 364 1 0 8 -3 17 -6z m-1659
-175 c11 -17 -1 -21 -15 -4 -8 9 -8 15 -2 15 6 0 14 -5 17 -11z m1718 -63 c-3
-6 -3 -8 2 -4 4 4 32 -30 63 -75 62 -93 80 -116 208 -277 98 -124 187 -250
181 -256 -2 -2 -26 5 -52 17 -56 25 -234 41 -221 20 4 -6 17 -11 28 -11 34 0
138 -32 138 -42 0 -5 5 -6 10 -3 6 4 30 -13 54 -37 44 -43 44 -45 38 -121 -1
-10 -7 -15 -12 -12 -7 4 -6 13 1 26 6 12 8 23 6 26 -3 2 -8 -5 -12 -16 -8 -27
-23 -27 -35 2 -5 12 -9 16 -9 9 -1 -9 -8 -8 -25 5 -13 10 -22 21 -20 24 2 4
-3 10 -12 13 -8 3 -13 2 -9 -3 3 -5 -8 -4 -25 2 -16 6 -30 15 -30 20 0 4 -4 5
-10 2 -5 -3 -10 -2 -10 2 0 5 -15 9 -32 9 -18 0 -42 4 -53 9 -18 8 -18 7 -5
-6 8 -8 36 -23 62 -33 26 -10 51 -22 54 -28 4 -6 -3 -5 -17 2 -23 10 -23 10
-5 -4 10 -9 23 -13 27 -10 13 8 75 -38 109 -81 l31 -39 -29 -26 c-16 -14 -54
-52 -83 -85 -29 -33 -57 -59 -62 -57 -5 1 -6 -2 -3 -7 3 -5 -1 -14 -9 -21 -11
-9 -14 -7 -12 12 1 13 8 29 17 36 13 11 13 12 0 6 -8 -4 -5 3 8 15 12 12 26
19 31 16 5 -3 13 0 17 6 4 8 3 9 -4 5 -8 -5 -10 -2 -6 9 4 10 10 12 18 6 8 -6
11 -1 12 19 1 21 -3 27 -13 23 -10 -4 -13 0 -11 12 2 13 -4 19 -19 20 -13 1
-21 -1 -18 -3 3 -3 -1 -12 -7 -21 -10 -13 -10 -14 2 -3 20 17 35 15 20 -3 -11
-13 -10 -14 6 -8 17 6 17 5 5 -10 -11 -14 -17 -15 -28 -5 -8 6 -13 7 -11 2 4
-15 -22 -55 -33 -48 -6 4 -5 12 3 21 12 15 11 15 -10 2 -12 -8 -18 -15 -12
-17 5 -2 10 -8 10 -14 0 -6 -7 -7 -16 -4 -8 3 -13 2 -10 -3 7 -10 -31 -61 -45
-61 -6 0 -7 5 -3 12 4 7 3 8 -4 4 -7 -4 -12 -2 -12 5 0 7 -3 9 -7 6 -3 -4 2
-17 13 -29 10 -12 13 -18 7 -14 -8 4 -13 2 -13 -6 0 -7 -9 -24 -19 -37 l-18
-24 -29 22 c-24 17 -35 19 -61 12 -18 -5 -33 -7 -33 -3 0 4 -5 -1 -11 -11 -6
-10 -8 -21 -5 -24 3 -4 6 -1 6 7 0 10 3 10 15 0 12 -10 13 -16 4 -27 -9 -11
-9 -12 4 -8 11 5 19 -6 32 -44 9 -28 14 -54 12 -58 -3 -5 1 -17 9 -28 13 -17
16 -18 24 -5 26 42 29 45 40 34 7 -7 -1 -23 -26 -52 -29 -34 -39 -40 -50 -31
-8 6 -12 15 -9 19 3 5 1 10 -3 12 -5 1 -19 35 -30 73 -25 80 -54 117 -105 136
-20 7 -34 16 -31 20 2 4 0 11 -6 14 -6 4 -9 1 -8 -5 2 -7 -21 -25 -51 -41 -64
-33 -115 -80 -178 -164 -89 -118 -122 -220 -102 -314 9 -45 57 -111 80 -111 6
0 7 -5 3 -12 -5 -8 -2 -9 9 -5 10 3 17 2 17 -3 0 -11 -12 -13 -50 -10 -34 2
-106 44 -102 59 1 7 -1 10 -6 7 -11 -7 -24 4 -51 41 -12 18 -19 38 -15 44 4 8
3 9 -4 5 -7 -4 -18 8 -28 31 -22 51 -13 195 14 233 10 14 24 46 32 73 7 26 26
68 41 93 16 24 29 47 29 50 0 3 20 36 44 72 65 100 227 261 314 312 77 45 89
62 27 35 -48 -20 -57 -12 -13 11 82 45 114 56 212 79 40 9 16 25 -37 25 -34 0
-37 2 -27 19 5 11 10 28 10 39 0 11 7 25 15 32 8 7 15 18 15 24 0 6 -4 5 -9
-3 -7 -10 -12 0 -17 35 -5 27 -8 55 -7 61 0 7 -3 10 -8 7 -5 -3 -9 1 -9 8 0 7
-14 40 -31 73 -38 72 -53 200 -27 226 8 8 13 20 10 28 -3 9 0 11 8 6 9 -5 11
-4 6 4 -5 7 4 27 19 47 l27 36 19 -28 c10 -15 15 -33 12 -38z m-613 -819 c0
-7 -9 -13 -19 -13 -15 0 -17 3 -9 13 6 7 14 13 19 13 5 0 9 -6 9 -13z m825
-250 c0 -30 -54 -109 -68 -100 -6 3 -7 1 -3 -5 7 -12 -41 -92 -55 -92 -12 0
-11 17 1 25 6 4 7 11 4 17 -4 6 -2 8 3 5 6 -4 14 0 17 9 3 8 2 12 -4 9 -6 -3
-7 1 -4 9 3 9 11 13 17 9 6 -3 7 -1 3 5 -4 6 1 23 10 37 12 19 20 23 29 15 9
-8 15 -8 20 0 4 6 1 9 -6 8 -6 -2 -14 3 -17 11 -3 10 0 12 11 8 12 -4 14 -2
10 10 -5 12 -3 14 7 8 9 -5 11 -4 6 3 -8 13 0 32 13 32 4 0 7 -11 6 -23z
m-380 -144 c-7 -45 24 -157 55 -196 l20 -25 -30 -19 c-37 -23 -149 -132 -197
-190 -40 -48 -58 -52 -97 -22 -67 53 -72 141 -15 258 53 107 186 229 252 231
16 0 18 -5 12 -37z m77 -95 c14 -46 25 -84 24 -85 -8 -9 -51 36 -62 64 -14 33
-10 103 5 103 4 0 18 -37 33 -82z m-2542 -768 c0 -14 -81 -130 -91 -130 -21 0
-15 21 23 78 36 55 68 80 68 52z m60 -46 c0 -15 -99 -154 -104 -146 -6 11 82
152 95 152 5 0 9 -3 9 -6z m374 -236 c-36 -62 -129 -186 -136 -182 -10 6 -9 8
66 112 33 45 63 82 68 82 5 0 6 -6 2 -12z m79 -30 c-5 -7 -38 -50 -73 -96 -35
-45 -65 -80 -68 -77 -3 2 0 10 5 17 6 7 36 48 67 91 31 42 62 77 68 77 7 0 7
-4 1 -12z m61 -30 c-13 -23 -127 -168 -131 -168 -7 0 7 21 69 103 33 42 61 77
64 77 3 0 2 -6 -2 -12z"/>
<path d="M2513 3593 c0 -7 10 -21 21 -30 21 -18 21 -18 4 3 -12 14 -14 24 -8
30 7 7 6 11 -3 11 -8 0 -14 -6 -14 -14z"/>
<path d="M2676 3438 c3 -5 10 -6 15 -3 13 9 11 12 -6 12 -8 0 -12 -4 -9 -9z"/>
<path d="M2980 3410 c-9 -6 -10 -10 -3 -10 6 0 15 5 18 10 8 12 4 12 -15 0z"/>
<path d="M2647 3289 c7 -7 15 -10 18 -7 3 3 -2 9 -12 12 -14 6 -15 5 -6 -5z"/>
<path d="M2996 3198 c3 -5 10 -6 15 -3 13 9 11 12 -6 12 -8 0 -12 -4 -9 -9z"/>
<path d="M3156 3082 c-2 -4 4 -8 14 -8 10 0 16 4 14 8 -3 4 -9 8 -14 8 -5 0
-11 -4 -14 -8z"/>
<path d="M3701 3043 c7 -12 15 -20 18 -17 3 2 -3 12 -13 22 -17 16 -18 16 -5
-5z"/>
<path d="M3735 3049 c-4 -6 -5 -12 -2 -15 2 -3 7 2 10 11 7 17 1 20 -8 4z"/>
<path d="M3030 3026 c0 -2 8 -10 18 -17 15 -13 16 -12 3 4 -13 16 -21 21 -21
13z"/>
<path d="M3606 2892 c-2 -4 -1 -14 3 -21 6 -10 10 -9 14 3 6 16 -8 32 -17 18z"/>
<path d="M2017 2874 c3 -8 -3 -25 -13 -37 -16 -18 -16 -19 -2 -8 16 12 20 8
39 -35 16 -38 18 -53 9 -67 -10 -16 -9 -17 11 -6 19 10 21 9 16 -5 -4 -10 -3
-14 2 -11 10 6 24 -11 27 -33 2 -8 6 -17 10 -20 4 -4 4 1 1 11 -5 13 9 6 40
-20 27 -22 64 -50 83 -63 19 -13 37 -27 40 -31 3 -3 16 -12 30 -19 57 -28 129
-84 123 -94 -3 -6 -3 -8 2 -4 8 8 155 -88 155 -101 0 -4 6 -8 13 -8 6 0 38
-16 69 -36 31 -21 61 -37 66 -37 4 0 19 -10 32 -22 14 -13 26 -22 27 -20 9 8
23 0 17 -10 -4 -6 -3 -8 3 -5 12 7 106 -31 111 -44 2 -5 9 -6 15 -2 7 4 8 0 3
-13 -5 -14 -4 -16 4 -8 13 13 50 7 50 -8 0 -5 4 -7 9 -3 5 3 12 1 16 -4 3 -6
12 -8 19 -5 8 3 17 1 20 -4 7 -12 60 5 101 33 17 11 34 18 38 17 5 -1 6 1 3 6
-3 5 6 20 21 33 14 13 23 18 18 10 -6 -10 -4 -12 4 -7 7 5 10 10 7 13 -3 3 -1
14 5 24 12 23 4 24 -51 4 -57 -20 -120 -19 -150 2 -14 10 -27 16 -30 15 -10
-6 -119 42 -114 50 3 4 -2 9 -10 9 -25 2 -29 4 -66 24 -19 11 -37 19 -40 20
-3 0 -29 14 -58 29 -38 21 -49 32 -40 39 9 6 8 7 -5 3 -28 -9 -333 187 -320
206 3 7 1 8 -6 4 -15 -9 -73 32 -65 46 4 7 2 8 -4 4 -14 -9 -64 23 -56 35 3 5
2 8 -3 7 -16 -5 -83 47 -78 60 3 7 0 10 -5 7 -11 -7 -122 74 -116 84 3 4 -4 7
-14 8 -13 1 -17 -3 -13 -13z"/>
<path d="M3549 2873 c-7 -10 -9 -15 -5 -11 5 4 16 2 25 -5 14 -10 14 -10 4 4
-7 9 -10 19 -6 22 3 4 4 7 1 7 -3 0 -12 -8 -19 -17z"/>
<path d="M3733 2846 c-17 -19 -34 -32 -37 -30 -3 2 -4 1 -1 -2 7 -10 -15 -45
-24 -39 -5 3 -11 -2 -15 -10 -3 -8 -11 -13 -18 -11 -7 1 -10 1 -5 -1 4 -3 5
-9 1 -14 -3 -5 -2 -9 1 -9 13 0 82 40 94 54 7 9 18 13 24 9 5 -3 7 -1 4 4 -9
14 18 65 29 55 4 -4 2 1 -5 11 -7 9 -14 17 -15 17 0 0 -15 -16 -33 -34z"/>
<path d="M1940 2860 c-9 -6 -10 -10 -3 -10 6 0 15 5 18 10 8 12 4 12 -15 0z"/>
<path d="M2294 2729 c-4 -7 -3 -9 4 -5 5 3 13 0 15 -6 4 -9 6 -10 6 -1 1 17
-16 25 -25 12z"/>
<path d="M1375 2579 c-4 -6 -5 -12 -2 -15 2 -3 7 2 10 11 7 17 1 20 -8 4z"/>
<path d="M2515 2560 c-3 -6 1 -7 9 -4 18 7 21 14 7 14 -6 0 -13 -4 -16 -10z"/>
<path d="M1440 2546 c0 -2 8 -10 18 -17 15 -13 16 -12 3 4 -13 16 -21 21 -21
13z"/>
<path d="M1326 2478 c3 -5 10 -6 15 -3 13 9 11 12 -6 12 -8 0 -12 -4 -9 -9z"/>
<path d="M2684 2478 c10 -6 22 -6 26 -2 5 5 -3 10 -18 11 -22 1 -24 0 -8 -9z"/>
<path d="M1652 2331 c-11 -6 -10 -10 0 -19 11 -8 14 -7 14 9 0 10 0 19 -1 19
0 0 -6 -4 -13 -9z"/>
<path d="M3374 2329 c-4 -7 -3 -9 4 -5 6 3 13 2 16 -3 6 -9 -31 -27 -46 -23
-4 1 -4 -6 -1 -15 5 -12 2 -15 -10 -10 -9 3 -16 3 -14 -1 4 -12 -29 -52 -37
-44 -4 4 -6 3 -4 -3 4 -15 -24 -78 -42 -93 -13 -11 -13 -12 0 -7 8 4 6 -1 -4
-9 -11 -9 -16 -16 -12 -16 5 0 3 -6 -3 -14 -7 -8 -14 -23 -16 -35 -3 -18 -1
-19 16 -8 10 6 17 17 15 24 -3 6 7 19 20 30 14 10 41 42 60 71 19 29 39 50 45
47 5 -3 6 0 3 8 -6 17 34 49 49 40 6 -3 7 -1 3 6 -4 6 -12 9 -17 5 -6 -3 -5 3
3 15 12 19 13 19 20 3 5 -13 7 -13 7 -2 0 8 -4 22 -9 30 -5 8 -10 11 -10 6 0
-5 -6 -3 -14 3 -11 9 -16 9 -22 0z"/>
<path d="M2943 2315 c0 -7 6 -11 14 -8 7 3 13 6 13 8 0 2 -6 5 -13 8 -8 3 -14
-1 -14 -8z"/>
<path d="M1923 2285 c0 -8 4 -12 9 -9 5 3 6 10 3 15 -9 13 -12 11 -12 -6z"/>
<path d="M1698 2243 c-3 -13 -2 -26 3 -29 5 -3 6 -10 3 -16 -4 -6 -2 -8 4 -4
17 10 20 -18 3 -32 -15 -11 -15 -12 0 -7 10 4 26 -7 45 -32 16 -21 27 -39 24
-40 -15 -6 109 -100 213 -163 27 -16 36 -27 32 -39 -5 -12 -3 -13 5 -5 9 9 18
8 38 -3 61 -32 87 -51 85 -61 -1 -5 7 -8 19 -4 14 3 19 1 14 -6 -4 -7 -2 -10
6 -7 7 2 22 -2 33 -11 17 -13 18 -16 5 -24 -9 -6 -10 -10 -3 -10 6 0 15 4 18
10 4 6 13 5 25 -2 14 -9 16 -15 7 -21 -8 -6 -6 -7 6 -3 20 6 80 -27 69 -39 -4
-5 -2 -5 4 -2 14 8 106 -41 99 -53 -3 -5 0 -12 6 -16 8 -4 9 -3 5 4 -4 7 -4
12 -1 12 12 0 70 -33 77 -44 4 -6 8 -8 8 -3 0 4 19 -5 43 -20 34 -23 53 -28
102 -27 72 1 114 7 109 15 -5 9 41 50 49 44 4 -3 5 -2 3 1 -3 3 11 26 30 51
19 24 34 54 34 66 0 17 -2 19 -9 8 -8 -12 -12 -13 -26 -1 -13 11 -16 11 -13 0
2 -7 -11 -17 -32 -23 -69 -19 -329 11 -313 36 3 6 2 7 -4 4 -14 -9 -83 14 -76
26 3 6 1 7 -5 3 -14 -9 -83 25 -75 37 3 6 1 7 -5 3 -16 -10 -174 73 -165 86 3
7 1 8 -5 4 -7 -4 -20 -2 -29 4 -17 11 -17 11 0 6 11 -4 16 -2 12 5 -4 6 -14 8
-22 5 -17 -7 -52 10 -71 33 -8 9 -10 10 -7 2 5 -8 -2 -7 -21 5 -16 10 -31 21
-34 24 -3 3 -18 11 -33 18 -15 7 -25 17 -22 22 4 6 -1 7 -11 3 -12 -4 -15 -3
-10 5 5 8 2 10 -9 6 -12 -5 -16 -2 -13 12 2 14 -3 18 -22 19 -14 0 -24 5 -23
11 1 7 -4 11 -11 10 -19 -2 -117 85 -109 97 3 5 1 7 -4 4 -6 -4 -14 0 -17 9
-9 23 -7 31 4 14 7 -12 9 -10 7 8 -1 14 -5 18 -11 12 -15 -15 -24 -12 -28 8
-3 14 -5 13 -10 -5z"/>
<path d="M1800 2167 c0 -2 6 -10 14 -16 11 -9 16 -9 22 1 4 7 4 10 -1 6 -4 -4
-14 -3 -22 3 -7 6 -13 9 -13 6z"/>
<path d="M3257 2059 c4 -13 8 -18 11 -10 2 7 -1 18 -6 23 -8 8 -9 4 -5 -13z"/>
<path d="M1770 2056 c0 -2 8 -10 18 -17 15 -13 16 -12 3 4 -13 16 -21 21 -21
13z"/>
<path d="M1394 2006 c24 -19 32 -20 42 -4 4 7 3 8 -4 4 -6 -4 -22 -2 -34 4
-22 11 -22 10 -4 -4z"/>
<path d="M1410 1960 c6 -11 13 -20 16 -20 2 0 0 9 -6 20 -6 11 -13 20 -16 20
-2 0 0 -9 6 -20z"/>
<path d="M1588 1973 c7 -3 16 -2 19 1 4 3 -2 6 -13 5 -11 0 -14 -3 -6 -6z"/>
<path d="M3000 1965 c0 -7 30 -13 34 -7 3 4 -4 9 -15 9 -10 1 -19 0 -19 -2z"/>
<path d="M3040 1881 c0 -6 4 -13 10 -16 6 -3 7 1 4 9 -7 18 -14 21 -14 7z"/>
<path d="M1546 1851 c-4 -5 -2 -12 4 -16 6 -4 8 -10 5 -15 -3 -4 3 -14 12 -21
12 -10 14 -10 9 -1 -4 7 -2 12 6 12 8 0 6 5 -5 11 -9 6 -15 14 -12 19 3 5 1
11 -4 14 -5 4 -12 2 -15 -3z"/>
<path d="M2991 1844 c0 -11 3 -14 6 -6 3 7 2 16 -1 19 -3 4 -6 -2 -5 -13z"/>
<path d="M1320 1826 c0 -2 8 -10 18 -17 15 -13 16 -12 3 4 -13 16 -21 21 -21
13z"/>
<path d="M2115 1820 c-3 -6 1 -7 9 -4 18 7 21 14 7 14 -6 0 -13 -4 -16 -10z"/>
<path d="M2992 1775 c-7 -14 -19 -28 -27 -31 -8 -4 -12 -10 -9 -15 3 -5 -2 -9
-10 -9 -9 0 -16 -5 -16 -11 0 -5 5 -7 10 -4 6 4 -2 -14 -17 -39 -15 -24 -32
-42 -38 -39 -5 4 -7 3 -3 -2 4 -4 -6 -24 -21 -44 -25 -32 -27 -37 -11 -37 10
0 17 3 14 7 -2 4 12 17 31 30 19 13 35 28 35 32 0 5 6 5 13 1 6 -4 9 -4 5 1
-4 4 1 20 12 35 11 16 20 33 20 40 0 6 5 8 12 4 8 -5 9 -2 5 9 -3 9 0 22 7 29
12 13 15 52 4 63 -2 3 -10 -6 -16 -20z"/>
<path d="M3066 1765 c-10 -19 -23 -32 -29 -28 -6 3 -7 1 -3 -5 4 -6 -4 -28
-17 -49 -14 -21 -41 -69 -61 -106 -30 -54 -40 -66 -51 -57 -9 8 -15 8 -20 0
-6 -10 -5 -11 18 -14 6 -1 11 -8 9 -16 -1 -11 2 -10 12 3 8 10 16 14 18 10 3
-4 4 -3 2 4 -3 12 34 50 45 46 3 -2 6 0 7 5 2 21 17 41 27 35 5 -3 7 -1 4 4
-4 6 1 21 11 34 10 13 26 47 36 74 10 28 22 54 27 59 8 9 1 36 -10 36 -3 0
-15 -16 -25 -35z"/>
<path d="M2942 1775 l-23 -12 21 -6 c12 -3 19 -3 16 0 -3 4 -1 12 5 20 13 15
12 15 -19 -2z"/>
<path d="M2919 1463 c-13 -16 -12 -17 4 -4 9 7 17 15 17 17 0 8 -8 3 -21 -13z"/>
<path d="M2300 1420 c-9 -6 -10 -10 -3 -10 6 0 15 5 18 10 8 12 4 12 -15 0z"/>
<path d="M2611 1427 c2 -1 13 -9 24 -17 19 -14 19 -14 6 3 -7 9 -18 17 -24 17
-6 0 -8 -1 -6 -3z"/>
<path d="M4115 3609 c-4 -6 -5 -12 -2 -15 2 -3 7 2 10 11 7 17 1 20 -8 4z"/>
<path d="M4191 3204 c0 -11 3 -14 6 -6 3 7 2 16 -1 19 -3 4 -6 -2 -5 -13z"/>
<path d="M4212 2985 c-90 -25 -86 -31 21 -27 108 4 239 -10 245 -27 2 -5 10
-7 19 -4 10 4 14 2 9 -5 -3 -6 -1 -14 5 -18 8 -4 9 -3 5 4 -4 7 -1 12 6 12 9
0 9 3 -2 10 -14 9 -7 14 13 11 5 -1 5 4 2 10 -5 7 -11 7 -17 1 -7 -7 -26 -2
-58 14 -63 31 -174 40 -248 19z"/>
<path d="M4544 2912 c4 -7 2 -21 -5 -30 -12 -15 -11 -15 6 0 16 15 17 20 6 30
-11 11 -13 10 -7 0z"/>
<path d="M4405 2841 c-8 -14 10 -22 30 -15 13 5 14 8 3 15 -17 11 -26 11 -33
0z"/>
<path d="M4512 2801 c-11 -7 -11 -9 0 -14 9 -3 15 1 15 9 0 8 -1 14 -1 14 -1
0 -7 -4 -14 -9z"/>
<path d="M4490 2773 c0 -7 -1 -16 -2 -20 -5 -11 32 -12 39 -1 3 7 1 8 -5 4 -6
-3 -15 2 -21 11 -6 10 -11 12 -11 6z"/>
<path d="M3580 1981 c0 -6 4 -13 10 -16 6 -3 7 1 4 9 -7 18 -14 21 -14 7z"/>
<path d="M3627 1909 c7 -7 15 -10 18 -7 3 3 -2 9 -12 12 -14 6 -15 5 -6 -5z"/>
<path d="M3683 1885 c0 -7 6 -11 14 -8 7 3 13 6 13 8 0 2 -6 5 -13 8 -8 3 -14
-1 -14 -8z"/>
<path d="M1368 1288 c-13 -10 -327 -450 -362 -506 -14 -24 43 -121 114 -190
37 -37 101 -86 143 -110 88 -50 212 -95 242 -88 20 5 380 475 397 517 8 21 -1
28 -77 59 -133 53 -256 139 -362 255 -38 41 -72 75 -74 75 -3 0 -12 -6 -21
-12z m-73 -229 c-53 -74 -121 -169 -151 -211 -54 -76 -98 -122 -59 -62 71 108
300 423 303 416 1 -5 -40 -70 -93 -143z m-29 -139 c-92 -122 -166 -218 -166
-214 0 9 73 112 242 342 46 61 84 108 86 103 2 -5 -71 -109 -162 -231z m394
54 c0 -5 -299 -422 -322 -448 -4 -5 -10 -7 -14 -4 -3 4 36 64 88 135 52 70
125 172 163 226 61 86 85 111 85 91z m89 -43 c11 -7 -5 -36 -75 -132 -93 -131
-236 -324 -238 -323 0 0 -12 3 -26 7 l-24 6 20 23 c11 13 85 114 164 226 79
111 149 202 154 202 6 0 17 -4 25 -9z m59 -49 c-15 -20 -309 -415 -315 -421
-1 -2 -5 -2 -7 0 -8 8 311 439 326 439 5 0 3 -8 -4 -18z"/>
</g>
</svg>
